<svg width="335" height="70" viewBox="0 0 335 70" fill="none" xmlns="http://www.w3.org/2000/svg">
<rect x="0.5" y="14.5" width="334" height="55" rx="9.5" stroke="#1D438A" stroke-opacity="0.5"/>
<rect x="12" width="92" height="24" rx="6" fill="white"/>
<path d="M28.295 14.195H22.445L21.185 17H20.03L24.83 6.5H25.925L30.725 17H29.555L28.295 14.195ZM27.89 13.295L25.37 7.655L22.85 13.295H27.89ZM32.237 5.87H33.302V17H32.237V5.87ZM36.2653 5.87H37.3303V17H36.2653V5.87ZM47.1636 13.385H40.5636C40.6236 14.205 40.9386 14.87 41.5086 15.38C42.0786 15.88 42.7986 16.13 43.6686 16.13C44.1586 16.13 44.6086 16.045 45.0186 15.875C45.4286 15.695 45.7836 15.435 46.0836 15.095L46.6836 15.785C46.3336 16.205 45.8936 16.525 45.3636 16.745C44.8436 16.965 44.2686 17.075 43.6386 17.075C42.8286 17.075 42.1086 16.905 41.4786 16.565C40.8586 16.215 40.3736 15.735 40.0236 15.125C39.6736 14.515 39.4986 13.825 39.4986 13.055C39.4986 12.285 39.6636 11.595 39.9936 10.985C40.3336 10.375 40.7936 9.9 41.3736 9.56C41.9636 9.22 42.6236 9.05 43.3536 9.05C44.0836 9.05 44.7386 9.22 45.3186 9.56C45.8986 9.9 46.3536 10.375 46.6836 10.985C47.0136 11.585 47.1786 12.275 47.1786 13.055L47.1636 13.385ZM43.3536 9.965C42.5936 9.965 41.9536 10.21 41.4336 10.7C40.9236 11.18 40.6336 11.81 40.5636 12.59H46.1586C46.0886 11.81 45.7936 11.18 45.2736 10.7C44.7636 10.21 44.1236 9.965 43.3536 9.965ZM50.3663 10.655C50.6163 10.125 50.9863 9.725 51.4763 9.455C51.9763 9.185 52.5913 9.05 53.3213 9.05V10.085L53.0663 10.07C52.2363 10.07 51.5863 10.325 51.1163 10.835C50.6463 11.345 50.4113 12.06 50.4113 12.98V17H49.3463V9.11H50.3663V10.655ZM62.4814 9.11V16.04C62.4814 17.38 62.1514 18.37 61.4914 19.01C60.8414 19.66 59.8564 19.985 58.5364 19.985C57.8064 19.985 57.1114 19.875 56.4514 19.655C55.8014 19.445 55.2714 19.15 54.8614 18.77L55.4014 17.96C55.7814 18.3 56.2414 18.565 56.7814 18.755C57.3314 18.945 57.9064 19.04 58.5064 19.04C59.5064 19.04 60.2414 18.805 60.7114 18.335C61.1814 17.875 61.4164 17.155 61.4164 16.175V15.17C61.0864 15.67 60.6514 16.05 60.1114 16.31C59.5814 16.57 58.9914 16.7 58.3414 16.7C57.6014 16.7 56.9264 16.54 56.3164 16.22C55.7164 15.89 55.2414 15.435 54.8914 14.855C54.5514 14.265 54.3814 13.6 54.3814 12.86C54.3814 12.12 54.5514 11.46 54.8914 10.88C55.2414 10.3 55.7164 9.85 56.3164 9.53C56.9164 9.21 57.5914 9.05 58.3414 9.05C59.0114 9.05 59.6164 9.185 60.1564 9.455C60.6964 9.725 61.1314 10.115 61.4614 10.625V9.11H62.4814ZM58.4464 15.755C59.0164 15.755 59.5314 15.635 59.9914 15.395C60.4514 15.145 60.8064 14.8 61.0564 14.36C61.3164 13.92 61.4464 13.42 61.4464 12.86C61.4464 12.3 61.3164 11.805 61.0564 11.375C60.8064 10.935 60.4514 10.595 59.9914 10.355C59.5414 10.105 59.0264 9.98 58.4464 9.98C57.8764 9.98 57.3614 10.1 56.9014 10.34C56.4514 10.58 56.0964 10.92 55.8364 11.36C55.5864 11.8 55.4614 12.3 55.4614 12.86C55.4614 13.42 55.5864 13.92 55.8364 14.36C56.0964 14.8 56.4514 15.145 56.9014 15.395C57.3614 15.635 57.8764 15.755 58.4464 15.755ZM65.4596 9.11H66.5246V17H65.4596V9.11ZM65.9996 7.385C65.7796 7.385 65.5946 7.31 65.4446 7.16C65.2946 7.01 65.2196 6.83 65.2196 6.62C65.2196 6.42 65.2946 6.245 65.4446 6.095C65.5946 5.945 65.7796 5.87 65.9996 5.87C66.2196 5.87 66.4046 5.945 66.5546 6.095C66.7046 6.235 66.7796 6.405 66.7796 6.605C66.7796 6.825 66.7046 7.01 66.5546 7.16C66.4046 7.31 66.2196 7.385 65.9996 7.385ZM72.7579 17.075C71.9779 17.075 71.2779 16.905 70.6579 16.565C70.0479 16.225 69.5679 15.75 69.2179 15.14C68.8679 14.52 68.6929 13.825 68.6929 13.055C68.6929 12.285 68.8679 11.595 69.2179 10.985C69.5679 10.375 70.0479 9.9 70.6579 9.56C71.2779 9.22 71.9779 9.05 72.7579 9.05C73.4379 9.05 74.0429 9.185 74.5729 9.455C75.1129 9.715 75.5379 10.1 75.8479 10.61L75.0529 11.15C74.7929 10.76 74.4629 10.47 74.0629 10.28C73.6629 10.08 73.2279 9.98 72.7579 9.98C72.1879 9.98 71.6729 10.11 71.2129 10.37C70.7629 10.62 70.4079 10.98 70.1479 11.45C69.8979 11.92 69.7729 12.455 69.7729 13.055C69.7729 13.665 69.8979 14.205 70.1479 14.675C70.4079 15.135 70.7629 15.495 71.2129 15.755C71.6729 16.005 72.1879 16.13 72.7579 16.13C73.2279 16.13 73.6629 16.035 74.0629 15.845C74.4629 15.655 74.7929 15.365 75.0529 14.975L75.8479 15.515C75.5379 16.025 75.1129 16.415 74.5729 16.685C74.0329 16.945 73.4279 17.075 72.7579 17.075ZM86.0209 16.52C85.8209 16.7 85.5709 16.84 85.2709 16.94C84.9809 17.03 84.6759 17.075 84.3559 17.075C83.6159 17.075 83.0459 16.875 82.6459 16.475C82.2459 16.075 82.0459 15.51 82.0459 14.78V10.01H80.6359V9.11H82.0459V7.385H83.1109V9.11H85.5109V10.01H83.1109V14.72C83.1109 15.19 83.2259 15.55 83.4559 15.8C83.6959 16.04 84.0359 16.16 84.4759 16.16C84.6959 16.16 84.9059 16.125 85.1059 16.055C85.3159 15.985 85.4959 15.885 85.6459 15.755L86.0209 16.52ZM90.9063 17.075C90.1463 17.075 89.4613 16.905 88.8513 16.565C88.2413 16.215 87.7613 15.735 87.4113 15.125C87.0613 14.515 86.8863 13.825 86.8863 13.055C86.8863 12.285 87.0613 11.595 87.4113 10.985C87.7613 10.375 88.2413 9.9 88.8513 9.56C89.4613 9.22 90.1463 9.05 90.9063 9.05C91.6663 9.05 92.3513 9.22 92.9613 9.56C93.5713 9.9 94.0463 10.375 94.3863 10.985C94.7363 11.595 94.9113 12.285 94.9113 13.055C94.9113 13.825 94.7363 14.515 94.3863 15.125C94.0463 15.735 93.5713 16.215 92.9613 16.565C92.3513 16.905 91.6663 17.075 90.9063 17.075ZM90.9063 16.13C91.4663 16.13 91.9663 16.005 92.4063 15.755C92.8563 15.495 93.2063 15.13 93.4563 14.66C93.7063 14.19 93.8313 13.655 93.8313 13.055C93.8313 12.455 93.7063 11.92 93.4563 11.45C93.2063 10.98 92.8563 10.62 92.4063 10.37C91.9663 10.11 91.4663 9.98 90.9063 9.98C90.3463 9.98 89.8413 10.11 89.3913 10.37C88.9513 10.62 88.6013 10.98 88.3413 11.45C88.0913 11.92 87.9663 12.455 87.9663 13.055C87.9663 13.655 88.0913 14.19 88.3413 14.66C88.6013 15.13 88.9513 15.495 89.3913 15.755C89.8413 16.005 90.3463 16.13 90.9063 16.13Z" fill="#163570"/>
</svg>
