<svg width="100" height="70" viewBox="0 0 100 70" fill="none" xmlns="http://www.w3.org/2000/svg">
<rect x="0.5" y="14.5" width="99" height="55" rx="9.5" stroke="#1D438A" stroke-opacity="0.5"/>
<rect x="12" width="47" height="24" rx="6" fill="white"/>
<path d="M28.295 14.195H22.445L21.185 17H20.03L24.83 6.5H25.925L30.725 17H29.555L28.295 14.195ZM27.89 13.295L25.37 7.655L22.85 13.295H27.89ZM39.4687 9.11V16.04C39.4687 17.38 39.1387 18.37 38.4787 19.01C37.8287 19.66 36.8437 19.985 35.5237 19.985C34.7937 19.985 34.0987 19.875 33.4387 19.655C32.7887 19.445 32.2587 19.15 31.8487 18.77L32.3887 17.96C32.7687 18.3 33.2287 18.565 33.7687 18.755C34.3187 18.945 34.8937 19.04 35.4937 19.04C36.4937 19.04 37.2287 18.805 37.6987 18.335C38.1687 17.875 38.4037 17.155 38.4037 16.175V15.17C38.0737 15.67 37.6387 16.05 37.0987 16.31C36.5687 16.57 35.9787 16.7 35.3287 16.7C34.5887 16.7 33.9137 16.54 33.3037 16.22C32.7037 15.89 32.2287 15.435 31.8787 14.855C31.5387 14.265 31.3687 13.6 31.3687 12.86C31.3687 12.12 31.5387 11.46 31.8787 10.88C32.2287 10.3 32.7037 9.85 33.3037 9.53C33.9037 9.21 34.5787 9.05 35.3287 9.05C35.9987 9.05 36.6037 9.185 37.1437 9.455C37.6837 9.725 38.1187 10.115 38.4487 10.625V9.11H39.4687ZM35.4337 15.755C36.0037 15.755 36.5187 15.635 36.9787 15.395C37.4387 15.145 37.7937 14.8 38.0437 14.36C38.3037 13.92 38.4337 13.42 38.4337 12.86C38.4337 12.3 38.3037 11.805 38.0437 11.375C37.7937 10.935 37.4387 10.595 36.9787 10.355C36.5287 10.105 36.0137 9.98 35.4337 9.98C34.8637 9.98 34.3487 10.1 33.8887 10.34C33.4387 10.58 33.0837 10.92 32.8237 11.36C32.5737 11.8 32.4487 12.3 32.4487 12.86C32.4487 13.42 32.5737 13.92 32.8237 14.36C33.0837 14.8 33.4387 15.145 33.8887 15.395C34.3487 15.635 34.8637 15.755 35.4337 15.755ZM49.3169 13.385H42.7169C42.7769 14.205 43.0919 14.87 43.6619 15.38C44.2319 15.88 44.9519 16.13 45.8219 16.13C46.3119 16.13 46.7619 16.045 47.1719 15.875C47.5819 15.695 47.9369 15.435 48.2369 15.095L48.8369 15.785C48.4869 16.205 48.0469 16.525 47.5169 16.745C46.9969 16.965 46.4219 17.075 45.7919 17.075C44.9819 17.075 44.2619 16.905 43.6319 16.565C43.0119 16.215 42.5269 15.735 42.1769 15.125C41.8269 14.515 41.6519 13.825 41.6519 13.055C41.6519 12.285 41.8169 11.595 42.1469 10.985C42.4869 10.375 42.9469 9.9 43.5269 9.56C44.1169 9.22 44.7769 9.05 45.5069 9.05C46.2369 9.05 46.8919 9.22 47.4719 9.56C48.0519 9.9 48.5069 10.375 48.8369 10.985C49.1669 11.585 49.3319 12.275 49.3319 13.055L49.3169 13.385ZM45.5069 9.965C44.7469 9.965 44.1069 10.21 43.5869 10.7C43.0769 11.18 42.7869 11.81 42.7169 12.59H48.3119C48.2419 11.81 47.9469 11.18 47.4269 10.7C46.9169 10.21 46.2769 9.965 45.5069 9.965Z" fill="#163570"/>
</svg>
